<svg width="85" height="596" viewBox="0 0 85 596" fill="none" xmlns="http://www.w3.org/2000/svg">
<line opacity="0.5" x1="42" y1="595" x2="42" y2="1" stroke="url(#paint0_linear_77_2)" stroke-width="2" stroke-linecap="round" stroke-dasharray="5 10"/>
<circle cx="42.5" cy="130.5" r="42.5" fill="white"/>
<path d="M45.8779 118.8V144H42.3139V121.932H36.6259V118.8H45.8779Z" fill="#194DD2"/>
<circle cx="42.5" cy="296.5" r="42.5" fill="#194DD2"/>
<path d="M51.6041 306.868V310H33.4961V307.552L43.7561 297.652C45.0041 296.452 45.8441 295.42 46.2761 294.556C46.7081 293.668 46.9241 292.78 46.9241 291.892C46.9241 290.572 46.4561 289.552 45.5201 288.832C44.6081 288.088 43.2881 287.716 41.5601 287.716C38.7761 287.716 36.6281 288.628 35.1161 290.452L32.6681 288.328C33.6521 287.128 34.9361 286.192 36.5201 285.52C38.1281 284.848 39.9161 284.512 41.8841 284.512C44.5241 284.512 46.6241 285.148 48.1841 286.42C49.7441 287.668 50.5241 289.372 50.5241 291.532C50.5241 292.876 50.2361 294.148 49.6601 295.348C49.0841 296.548 47.9921 297.916 46.3841 299.452L38.6801 306.868H51.6041Z" fill="white"/>
<circle cx="42.5" cy="462.5" r="42.5" fill="white"/>
<path d="M43.5752 461.384C46.0472 461.624 47.9312 462.392 49.2272 463.688C50.5232 464.96 51.1712 466.592 51.1712 468.584C51.1712 470.024 50.8112 471.332 50.0912 472.508C49.3712 473.66 48.2912 474.584 46.8512 475.28C45.4352 475.952 43.6952 476.288 41.6312 476.288C39.8312 476.288 38.1032 476.024 36.4472 475.496C34.7912 474.944 33.4352 474.188 32.3792 473.228L34.0352 470.384C34.8992 471.2 36.0032 471.86 37.3472 472.364C38.6912 472.844 40.1192 473.084 41.6312 473.084C43.5032 473.084 44.9552 472.688 45.9872 471.896C47.0432 471.104 47.5712 470.012 47.5712 468.62C47.5712 467.228 47.0552 466.148 46.0232 465.38C44.9912 464.612 43.4312 464.228 41.3432 464.228H39.3272V461.708L45.6632 453.932H33.5312V450.8H50.1632V453.248L43.5752 461.384Z" fill="#194DD2"/>
<defs>
<linearGradient id="paint0_linear_77_2" x1="43" y1="609.309" x2="43" y2="-24.8816" gradientUnits="userSpaceOnUse">
<stop stop-color="white" stop-opacity="0"/>
<stop offset="0.474718" stop-color="white"/>
<stop offset="1" stop-color="white" stop-opacity="0"/>
</linearGradient>
</defs>
</svg>
